# xmcd
#
# Track frame offsets: 
#        150
#        28793
#        54864
#        81398
#        114338
#        140015
#        164993
#        189915
#        206124
#        244321
#        287978
#        318929
#
# Disc length: 4578 seconds
#
# Revision: 1
# Processed by: cddbd v1.5.2PL0 Copyright (c) Steve Scherf et al.
# Submitted via: ExactAudioCopy v0.95a5
#
DISCID=b511e00c
DTITLE=Enrico Crivellaro - Freewheelin'
DYEAR=2010
DGENRE=Blues
TTITLE0=Blackout
TTITLE1=Super Cooker
TTITLE2=Chulahoma
TTITLE3=Forever Free
TTITLE4=One For Lucy
TTITLE5=Popcorn Jack
TTITLE6=T-Soul
TTITLE7=Universal Rock
TTITLE8=Hymn To King Solomon
TTITLE9=Can You Dig It
TTITLE10=In A Sentimental Mood
TTITLE11=Mr. Willits Playboy
EXTD=YEAR: 2010
EXTT0=
EXTT1=
EXTT2=
EXTT3=
EXTT4=
EXTT5=
EXTT6=
EXTT7=
EXTT8=
EXTT9=
EXTT10=
EXTT11=
PLAYORDER=
